<?xml version="1.0" encoding="UTF-8"?>
<!DOCTYPE svg PUBLIC "-//W3C//DTD SVG 1.1//EN" "http://www.w3.org/Graphics/SVG/1.1/DTD/svg11.dtd">
<!-- Creator: CorelDRAW 2020 (64 Bit) -->
<svg xmlns="http://www.w3.org/2000/svg" xml:space="preserve" width="20919px" height="4348px" version="1.1" style="shape-rendering:geometricPrecision; text-rendering:geometricPrecision; image-rendering:optimizeQuality; fill-rule:evenodd; clip-rule:evenodd"
viewBox="0 0 12168.02 2528.99"
 xmlns:xlink="http://www.w3.org/1999/xlink"
 xmlns:xodm="http://www.corel.com/coreldraw/odm/2003">
 <defs>
  <style type="text/css">
   <![CDATA[
    .fil1 {fill:white}
    .fil0 {fill:white;fill-rule:nonzero}
   ]]>
  </style>
 </defs>
 <g id="Camada_x0020_1">
  <metadata id="CorelCorpID_0Corel-Layer"/>
  <g id="_1211961639072">
   <path class="fil0" d="M6546.9 2528.99l0 -2528.99 764.22 0c842.32,0 1263.82,404.67 1263.82,1214 0,375.03 -91.57,677.36 -274.72,908.98 -114.46,146.11 -255.18,249.8 -423.51,312.42 -167.66,62.62 -391.2,93.59 -669.96,93.59l-659.85 0zm387.83 -290.87l195.26 0c371.68,0 635.62,-73.4 793.18,-220.85 156.88,-147.46 235.66,-394.57 235.66,-742 0,-352.15 -71.37,-604.64 -213.45,-756.81 -142.07,-151.5 -379.07,-227.59 -710.35,-227.59l-300.3 0 0 1947.25z"/>
   <polygon id="1" class="fil0" points="8450.5,2528.99 8450.5,0 10163.42,0 10163.42,290.87 8838.33,290.87 8838.33,1058.46 9961.43,1058.46 9961.43,1349.33 8838.33,1349.33 8838.33,2238.12 10252.3,2238.12 10252.3,2528.99 "/>
   <polygon id="2" class="fil0" points="10770.21,2528.99 9788.51,0 10199.23,0 11007.89,2010.53 11836.74,0 12168.02,0 11162.08,2528.99 "/>
  </g>
  <g id="_1211961637776">
   <polygon class="fil0" points="0,2528.99 1261.25,0 2524.11,2528.99 2129.42,2528.99 1261.25,788.58 394.7,2528.99 "/>
   <polygon class="fil0" points="5053.1,2.43 2524.11,1265.3 5053.1,2526.55 5053.1,2131.85 3312.7,1265.3 5053.1,397.13 "/>
  </g>
  <rect class="fil1" x="5302.38" y="1118.68" width="995.24" height="291.63"/>
 </g>
</svg>
