<?xml version="1.0" encoding="UTF-8"?>
<!DOCTYPE svg PUBLIC "-//W3C//DTD SVG 1.1//EN" "http://www.w3.org/Graphics/SVG/1.1/DTD/svg11.dtd">
<!-- Creator: CorelDRAW 2020 (64 Bit) -->
<svg xmlns="http://www.w3.org/2000/svg" xml:space="preserve" width="12854px" height="12720px" version="1.1" style="shape-rendering:geometricPrecision; text-rendering:geometricPrecision; image-rendering:optimizeQuality; fill-rule:evenodd; clip-rule:evenodd"
viewBox="0 0 14790.12 14635.29"
 xmlns:xlink="http://www.w3.org/1999/xlink"
 xmlns:xodm="http://www.corel.com/coreldraw/odm/2003">
 <defs>
  <style type="text/css">
   <![CDATA[
    .fil0 {fill:white;fill-rule:nonzero}
   ]]>
  </style>
 </defs>
 <g id="Camada_x0020_1">
  <metadata id="CorelCorpID_0Corel-Layer"/>
  <g id="_1211927125200">
   <path class="fil0" d="M0 14635.29l0 -6654.2 2010.79 0c2216.29,0 3325.32,1064.74 3325.32,3194.23 0,986.79 -240.93,1782.25 -722.82,2391.68 -301.17,384.44 -671.44,657.27 -1114.34,822.04 -441.14,164.75 -1029.31,246.25 -1762.76,246.25l-1736.19 0zm1020.45 -765.34l513.77 0c977.94,0 1672.41,-193.11 2086.97,-581.09 412.79,-387.98 620.07,-1038.17 620.07,-1952.32 0,-926.56 -187.8,-1590.92 -561.61,-1991.3 -373.81,-398.62 -997.42,-598.81 -1869.06,-598.81l-790.14 0 0 5123.52z"/>
   <polygon id="1" class="fil0" points="5008.69,14635.29 5008.69,7981.09 9515.68,7981.09 9515.68,8746.43 6029.14,8746.43 6029.14,10766.08 8984.2,10766.08 8984.2,11531.41 6029.14,11531.41 6029.14,13869.95 9749.54,13869.95 9749.54,14635.29 "/>
   <polygon id="2" class="fil0" points="11112.23,14635.29 8529.21,7981.09 9609.9,7981.09 11737.61,13271.14 13918.48,7981.09 14790.11,7981.09 12143.31,14635.29 "/>
  </g>
  <g id="_1211927127696">
   <polygon class="fil0" points="0,7464.51 3722.67,0 7450.13,7464.51 6285.15,7464.51 3722.67,2327.57 1164.98,7464.51 "/>
   <polygon class="fil0" points="14790.12,7.19 7325.6,3734.65 14790.12,7457.32 14790.12,6292.34 9653.17,3734.65 14790.12,1172.17 "/>
  </g>
 </g>
</svg>
