<?xml version="1.0" encoding="UTF-8"?>
<!DOCTYPE svg PUBLIC "-//W3C//DTD SVG 1.1//EN" "http://www.w3.org/Graphics/SVG/1.1/DTD/svg11.dtd">
<!-- Creator: CorelDRAW 2020 (64 Bit) -->
<svg xmlns="http://www.w3.org/2000/svg" xml:space="preserve" width="12854px" height="12720px" version="1.1" style="shape-rendering:geometricPrecision; text-rendering:geometricPrecision; image-rendering:optimizeQuality; fill-rule:evenodd; clip-rule:evenodd"
viewBox="0 0 1900.24 1880.35"
 xmlns:xlink="http://www.w3.org/1999/xlink"
 xmlns:xodm="http://www.corel.com/coreldraw/odm/2003">
 <defs>
  <style type="text/css">
   <![CDATA[
    .fil201 {fill:#01016A}
    .fil200 {fill:#02016A}
    .fil199 {fill:#03016A}
    .fil198 {fill:#04016A}
    .fil197 {fill:#05016A}
    .fil196 {fill:#06016A}
    .fil195 {fill:#07016A}
    .fil194 {fill:#08016A}
    .fil193 {fill:#09016A}
    .fil192 {fill:#0A016A}
    .fil191 {fill:#0B016A}
    .fil190 {fill:#0C016A}
    .fil189 {fill:#0D016A}
    .fil188 {fill:#0E016A}
    .fil187 {fill:#0F016A}
    .fil186 {fill:#10016A}
    .fil185 {fill:#11016A}
    .fil184 {fill:#12016A}
    .fil183 {fill:#13016A}
    .fil182 {fill:#14016A}
    .fil181 {fill:#15016A}
    .fil180 {fill:#16016A}
    .fil179 {fill:#17016A}
    .fil178 {fill:#18016A}
    .fil177 {fill:#19016A}
    .fil176 {fill:#1A016A}
    .fil175 {fill:#1B016A}
    .fil174 {fill:#1C016A}
    .fil173 {fill:#1D016A}
    .fil172 {fill:#1E016A}
    .fil171 {fill:#1F016A}
    .fil170 {fill:#20016A}
    .fil169 {fill:#21016A}
    .fil168 {fill:#22016A}
    .fil167 {fill:#23016A}
    .fil166 {fill:#24016A}
    .fil165 {fill:#25016A}
    .fil164 {fill:#26016A}
    .fil163 {fill:#27016A}
    .fil162 {fill:#28016A}
    .fil161 {fill:#290269}
    .fil160 {fill:#2B0269}
    .fil159 {fill:#2C0269}
    .fil158 {fill:#2D0269}
    .fil157 {fill:#2E0269}
    .fil156 {fill:#2F0269}
    .fil155 {fill:#300269}
    .fil154 {fill:#310269}
    .fil153 {fill:#320269}
    .fil152 {fill:#340269}
    .fil151 {fill:#350269}
    .fil150 {fill:#360269}
    .fil149 {fill:#370269}
    .fil148 {fill:#380269}
    .fil147 {fill:#3A0269}
    .fil146 {fill:#3B0269}
    .fil145 {fill:#3C0269}
    .fil144 {fill:#3D0269}
    .fil143 {fill:#3E0269}
    .fil142 {fill:#400269}
    .fil141 {fill:#410269}
    .fil140 {fill:#420269}
    .fil139 {fill:#430269}
    .fil138 {fill:#450269}
    .fil137 {fill:#460269}
    .fil136 {fill:#470269}
    .fil135 {fill:#490269}
    .fil134 {fill:#4A0269}
    .fil133 {fill:#4B0269}
    .fil132 {fill:#4C0269}
    .fil131 {fill:#4E0269}
    .fil130 {fill:#4F0269}
    .fil129 {fill:#500269}
    .fil128 {fill:#520269}
    .fil127 {fill:#530269}
    .fil126 {fill:#540269}
    .fil125 {fill:#560269}
    .fil124 {fill:#570269}
    .fil123 {fill:#580269}
    .fil122 {fill:#5A0269}
    .fil121 {fill:#5B0269}
    .fil120 {fill:#5D0269}
    .fil119 {fill:#5E0269}
    .fil118 {fill:#5F0269}
    .fil117 {fill:#610269}
    .fil116 {fill:#620269}
    .fil115 {fill:#630269}
    .fil114 {fill:#650269}
    .fil113 {fill:#660269}
    .fil112 {fill:#680269}
    .fil111 {fill:#690269}
    .fil110 {fill:#6A0269}
    .fil109 {fill:#6C0269}
    .fil108 {fill:#6D0269}
    .fil107 {fill:#6E0269}
    .fil106 {fill:#700269}
    .fil105 {fill:#710269}
    .fil104 {fill:#730269}
    .fil103 {fill:#740269}
    .fil102 {fill:#750269}
    .fil101 {fill:#770269}
    .fil100 {fill:#780368}
    .fil99 {fill:#7A0368}
    .fil98 {fill:#7B0368}
    .fil97 {fill:#7C0368}
    .fil96 {fill:#7E0368}
    .fil95 {fill:#7F0368}
    .fil94 {fill:#810368}
    .fil93 {fill:#820368}
    .fil92 {fill:#830368}
    .fil91 {fill:#850368}
    .fil90 {fill:#860368}
    .fil89 {fill:#870368}
    .fil88 {fill:#890368}
    .fil87 {fill:#8A0368}
    .fil86 {fill:#8C0368}
    .fil85 {fill:#8D0368}
    .fil84 {fill:#8E0368}
    .fil83 {fill:#900368}
    .fil82 {fill:#910368}
    .fil81 {fill:#920368}
    .fil80 {fill:#940368}
    .fil79 {fill:#950368}
    .fil78 {fill:#970368}
    .fil77 {fill:#980368}
    .fil76 {fill:#990368}
    .fil75 {fill:#9B0368}
    .fil74 {fill:#9C0368}
    .fil73 {fill:#9D0368}
    .fil72 {fill:#9F0368}
    .fil71 {fill:#A00368}
    .fil70 {fill:#A10368}
    .fil69 {fill:#A30368}
    .fil68 {fill:#A40368}
    .fil67 {fill:#A50368}
    .fil66 {fill:#A60368}
    .fil65 {fill:#A80368}
    .fil64 {fill:#A90368}
    .fil63 {fill:#AA0368}
    .fil62 {fill:#AC0368}
    .fil61 {fill:#AD0368}
    .fil60 {fill:#AE0368}
    .fil59 {fill:#AF0368}
    .fil58 {fill:#B10368}
    .fil57 {fill:#B20368}
    .fil56 {fill:#B30368}
    .fil55 {fill:#B40368}
    .fil54 {fill:#B50368}
    .fil53 {fill:#B70368}
    .fil52 {fill:#B80368}
    .fil51 {fill:#B90368}
    .fil50 {fill:#BA0368}
    .fil49 {fill:#BB0368}
    .fil48 {fill:#BD0368}
    .fil47 {fill:#BE0368}
    .fil46 {fill:#BF0368}
    .fil45 {fill:#C00368}
    .fil44 {fill:#C10368}
    .fil43 {fill:#C20368}
    .fil42 {fill:#C30368}
    .fil41 {fill:#C40368}
    .fil40 {fill:#C60368}
    .fil39 {fill:#C70467}
    .fil38 {fill:#C80467}
    .fil37 {fill:#C90467}
    .fil36 {fill:#CA0467}
    .fil35 {fill:#CB0467}
    .fil34 {fill:#CC0467}
    .fil33 {fill:#CD0467}
    .fil32 {fill:#CE0467}
    .fil31 {fill:#CF0467}
    .fil30 {fill:#D00467}
    .fil29 {fill:#D10467}
    .fil28 {fill:#D20467}
    .fil27 {fill:#D30467}
    .fil26 {fill:#D40467}
    .fil25 {fill:#D50467}
    .fil24 {fill:#D60467}
    .fil23 {fill:#D70467}
    .fil22 {fill:#D80467}
    .fil21 {fill:#D90467}
    .fil20 {fill:#DA0467}
    .fil19 {fill:#DB0467}
    .fil18 {fill:#DC0467}
    .fil17 {fill:#DD0467}
    .fil16 {fill:#DE0467}
    .fil15 {fill:#DF0467}
    .fil14 {fill:#E00467}
    .fil13 {fill:#E10467}
    .fil12 {fill:#E20467}
    .fil11 {fill:#E30467}
    .fil10 {fill:#E40467}
    .fil9 {fill:#E50467}
    .fil8 {fill:#E60467}
    .fil7 {fill:#E70467}
    .fil6 {fill:#E80467}
    .fil5 {fill:#E90467}
    .fil4 {fill:#EA0467}
    .fil3 {fill:#EB0467}
    .fil2 {fill:#EC0467}
    .fil1 {fill:#ED0467}
    .fil0 {fill:#EE0467}
   ]]>
  </style>
    <clipPath id="id0">
     <path d="M0 959.05l478.29 -959.05 478.91 959.05 -149.68 0 -329.23 -660 -328.61 660 -149.68 0zm1900.24 -958.13l-959.04 478.91 959.04 478.29 0 -149.68 -659.99 -328.61 659.99 -329.23 0 -149.68zm-472.53 1879.43l-293.7 -756.6 -359.38 0 0 259.48 379.67 0 0 98.33 -379.67 0 0 300.46 478 0 0 98.33 -609.11 0 0 -221.75c-13.62,30.74 -30.56,58.9 -50.8,84.5 -38.7,49.39 -86.27,84.44 -143.17,105.61 -56.68,21.17 -132.25,31.64 -226.48,31.64l-223.07 0 0 -854.93 258.35 0c195.42,0 323.83,64.44 385.17,193.3l0 -193.3 452.32 0 126.74 0 12.11 0 273.37 679.67 280.2 -679.67 111.98 0 -340.06 854.93 -132.47 0zm-1296.6 -98.33l66.01 0c125.64,0 214.87,-24.81 268.13,-74.66 53.04,-49.85 79.67,-133.38 79.67,-250.83 0,-119.05 -24.13,-204.41 -72.16,-255.85 -48.02,-51.21 -128.15,-76.93 -240.13,-76.93l-101.52 0 0 658.27z"/>
    </clipPath>
 </defs>
 <g id="Camada_x0020_1">
  <metadata id="CorelCorpID_0Corel-Layer"/>
  <g>
   <g style="clip-path:url(#id0)">
    <polygon class="fil0" points="1197.52,-710.47 1244.2,-663.21 -657.21,1215.04 -703.89,1167.78 "/>
    <polygon id="1" class="fil0" points="1241.6,-665.84 1249.39,-657.96 -652.02,1220.29 -659.8,1212.41 "/>
    <polygon id="2" class="fil0" points="1246.79,-660.58 1254.57,-652.71 -646.83,1225.55 -654.62,1217.67 "/>
    <polygon id="3" class="fil0" points="1251.98,-655.33 1259.76,-647.45 -641.64,1230.8 -649.43,1222.92 "/>
    <polygon id="4" class="fil0" points="1257.17,-650.08 1264.95,-642.2 -636.45,1236.05 -644.24,1228.17 "/>
    <polygon id="5" class="fil0" points="1262.36,-644.83 1270.14,-636.95 -631.27,1241.3 -639.05,1233.42 "/>
    <polygon id="6" class="fil0" points="1267.55,-639.57 1275.33,-631.69 -626.08,1246.56 -633.86,1238.68 "/>
    <polygon id="7" class="fil1" points="1272.74,-634.32 1280.52,-626.44 -620.89,1251.81 -628.67,1243.93 "/>
    <polygon id="8" class="fil1" points="1277.93,-629.07 1285.71,-621.19 -615.7,1257.06 -623.48,1249.18 "/>
    <polygon id="9" class="fil1" points="1283.11,-623.81 1290.9,-615.93 -610.51,1262.32 -618.29,1254.44 "/>
    <polygon id="10" class="fil1" points="1288.3,-618.56 1296.09,-610.68 -605.32,1267.57 -613.1,1259.69 "/>
    <polygon id="11" class="fil1" points="1293.49,-613.31 1301.28,-605.43 -600.13,1272.82 -607.91,1264.94 "/>
    <polygon id="12" class="fil2" points="1298.68,-608.06 1306.46,-600.18 -594.94,1278.07 -602.73,1270.19 "/>
    <polygon id="13" class="fil2" points="1303.87,-602.8 1311.65,-594.92 -589.75,1283.33 -597.54,1275.45 "/>
    <polygon id="14" class="fil2" points="1309.06,-597.55 1316.84,-589.67 -584.56,1288.58 -592.35,1280.7 "/>
    <polygon id="15" class="fil2" points="1314.25,-592.3 1322.03,-584.42 -579.38,1293.83 -587.16,1285.95 "/>
    <polygon id="16" class="fil3" points="1319.44,-587.04 1327.22,-579.16 -574.19,1299.09 -581.97,1291.21 "/>
    <polygon id="17" class="fil3" points="1324.63,-581.79 1332.41,-573.91 -569,1304.34 -576.78,1296.46 "/>
    <polygon id="18" class="fil3" points="1329.81,-576.54 1337.6,-568.66 -563.81,1309.59 -571.59,1301.71 "/>
    <polygon id="19" class="fil4" points="1335,-571.29 1342.79,-563.41 -558.62,1314.84 -566.4,1306.96 "/>
    <polygon id="20" class="fil4" points="1340.19,-566.03 1347.98,-558.15 -553.43,1320.1 -561.21,1312.22 "/>
    <polygon id="21" class="fil5" points="1345.38,-560.78 1353.16,-552.9 -548.24,1325.35 -556.03,1317.47 "/>
    <polygon id="22" class="fil5" points="1350.57,-555.53 1358.35,-547.65 -543.05,1330.6 -550.84,1322.72 "/>
    <polygon id="23" class="fil5" points="1355.76,-550.27 1363.54,-542.39 -537.86,1335.86 -545.65,1327.98 "/>
    <polygon id="24" class="fil6" points="1360.95,-545.02 1368.73,-537.14 -532.68,1341.11 -540.46,1333.23 "/>
    <polygon id="25" class="fil6" points="1366.14,-539.77 1373.92,-531.89 -527.49,1346.36 -535.27,1338.48 "/>
    <polygon id="26" class="fil7" points="1371.33,-534.52 1379.11,-526.64 -522.3,1351.61 -530.08,1343.74 "/>
    <polygon id="27" class="fil7" points="1376.51,-529.26 1384.3,-521.38 -517.11,1356.87 -524.89,1348.99 "/>
    <polygon id="28" class="fil8" points="1381.7,-524.01 1389.49,-516.13 -511.92,1362.12 -519.7,1354.24 "/>
    <polygon id="29" class="fil8" points="1386.89,-518.76 1394.68,-510.88 -506.73,1367.37 -514.51,1359.49 "/>
    <polygon id="30" class="fil9" points="1392.08,-513.5 1399.86,-505.62 -501.54,1372.63 -509.33,1364.75 "/>
    <polygon id="31" class="fil10" points="1397.27,-508.25 1405.05,-500.37 -496.35,1377.88 -504.14,1370 "/>
    <polygon id="32" class="fil10" points="1402.46,-503 1410.24,-495.12 -491.16,1383.13 -498.95,1375.25 "/>
    <polygon id="33" class="fil11" points="1407.65,-497.75 1415.43,-489.87 -485.98,1388.38 -493.76,1380.51 "/>
    <polygon id="34" class="fil12" points="1412.84,-492.49 1420.62,-484.61 -480.79,1393.64 -488.57,1385.76 "/>
    <polygon id="35" class="fil12" points="1418.03,-487.24 1425.81,-479.36 -475.6,1398.89 -483.38,1391.01 "/>
    <polygon id="36" class="fil13" points="1423.21,-481.99 1431,-474.11 -470.41,1404.14 -478.19,1396.26 "/>
    <polygon id="37" class="fil14" points="1428.4,-476.73 1436.19,-468.85 -465.22,1409.4 -473,1401.52 "/>
    <polygon id="38" class="fil14" points="1433.59,-471.48 1441.38,-463.6 -460.03,1414.65 -467.81,1406.77 "/>
    <polygon id="39" class="fil15" points="1438.78,-466.23 1446.56,-458.35 -454.84,1419.9 -462.63,1412.02 "/>
    <polygon id="40" class="fil16" points="1443.97,-460.97 1451.75,-453.1 -449.65,1425.15 -457.44,1417.28 "/>
    <polygon id="41" class="fil16" points="1449.16,-455.72 1456.94,-447.84 -444.46,1430.41 -452.25,1422.53 "/>
    <polygon id="42" class="fil17" points="1454.35,-450.47 1462.13,-442.59 -439.28,1435.66 -447.06,1427.78 "/>
    <polygon id="43" class="fil18" points="1459.54,-445.22 1467.32,-437.34 -434.09,1440.91 -441.87,1433.03 "/>
    <polygon id="44" class="fil19" points="1464.73,-439.96 1472.51,-432.08 -428.9,1446.17 -436.68,1438.29 "/>
    <polygon id="45" class="fil20" points="1469.91,-434.71 1477.7,-426.83 -423.71,1451.42 -431.49,1443.54 "/>
    <polygon id="46" class="fil20" points="1475.1,-429.46 1482.89,-421.58 -418.52,1456.67 -426.3,1448.79 "/>
    <polygon id="47" class="fil21" points="1480.29,-424.2 1488.08,-416.33 -413.33,1461.92 -421.11,1454.05 "/>
    <polygon id="48" class="fil22" points="1485.48,-418.95 1493.26,-411.07 -408.14,1467.18 -415.93,1459.3 "/>
    <polygon id="49" class="fil23" points="1490.67,-413.7 1498.45,-405.82 -402.95,1472.43 -410.74,1464.55 "/>
    <polygon id="50" class="fil24" points="1495.86,-408.45 1503.64,-400.57 -397.76,1477.68 -405.55,1469.8 "/>
    <polygon id="51" class="fil25" points="1501.05,-403.19 1508.83,-395.31 -392.58,1482.94 -400.36,1475.06 "/>
    <polygon id="52" class="fil26" points="1506.24,-397.94 1514.02,-390.06 -387.39,1488.19 -395.17,1480.31 "/>
    <polygon id="53" class="fil26" points="1511.43,-392.69 1519.21,-384.81 -382.2,1493.44 -389.98,1485.56 "/>
    <polygon id="54" class="fil27" points="1516.62,-387.43 1524.4,-379.56 -377.01,1498.7 -384.79,1490.82 "/>
    <polygon id="55" class="fil28" points="1521.8,-382.18 1529.59,-374.3 -371.82,1503.95 -379.6,1496.07 "/>
    <polygon id="56" class="fil29" points="1526.99,-376.93 1534.78,-369.05 -366.63,1509.2 -374.41,1501.32 "/>
    <polygon id="57" class="fil30" points="1532.18,-371.68 1539.97,-363.8 -361.44,1514.45 -369.23,1506.57 "/>
    <polygon id="58" class="fil31" points="1537.37,-366.42 1545.15,-358.54 -356.25,1519.71 -364.04,1511.83 "/>
    <polygon id="59" class="fil32" points="1542.56,-361.17 1550.34,-353.29 -351.06,1524.96 -358.85,1517.08 "/>
    <polygon id="60" class="fil33" points="1547.75,-355.92 1555.53,-348.04 -345.87,1530.21 -353.66,1522.33 "/>
    <polygon id="61" class="fil34" points="1552.94,-350.66 1560.72,-342.78 -340.69,1535.47 -348.47,1527.59 "/>
    <polygon id="62" class="fil35" points="1558.13,-345.41 1565.91,-337.53 -335.5,1540.72 -343.28,1532.84 "/>
    <polygon id="63" class="fil36" points="1563.32,-340.16 1571.1,-332.28 -330.31,1545.97 -338.09,1538.09 "/>
    <polygon id="64" class="fil37" points="1568.5,-334.91 1576.29,-327.03 -325.12,1551.22 -332.9,1543.34 "/>
    <polygon id="65" class="fil38" points="1573.69,-329.65 1581.48,-321.77 -319.93,1556.48 -327.71,1548.6 "/>
    <polygon id="66" class="fil39" points="1578.88,-324.4 1586.67,-316.52 -314.74,1561.73 -322.52,1553.85 "/>
    <polygon id="67" class="fil40" points="1584.07,-319.15 1591.85,-311.27 -309.55,1566.98 -317.34,1559.1 "/>
    <polygon id="68" class="fil41" points="1589.26,-313.89 1597.04,-306.01 -304.36,1572.24 -312.15,1564.36 "/>
    <polygon id="69" class="fil42" points="1594.45,-308.64 1602.23,-300.76 -299.17,1577.49 -306.96,1569.61 "/>
    <polygon id="70" class="fil43" points="1599.64,-303.39 1607.42,-295.51 -293.99,1582.74 -301.77,1574.86 "/>
    <polygon id="71" class="fil44" points="1604.83,-298.14 1612.61,-290.26 -288.8,1587.99 -296.58,1580.11 "/>
    <polygon id="72" class="fil45" points="1610.02,-292.88 1617.8,-285 -283.61,1593.25 -291.39,1585.37 "/>
    <polygon id="73" class="fil46" points="1615.2,-287.63 1622.99,-279.75 -278.42,1598.5 -286.2,1590.62 "/>
    <polygon id="74" class="fil47" points="1620.39,-282.38 1628.18,-274.5 -273.23,1603.75 -281.01,1595.87 "/>
    <polygon id="75" class="fil48" points="1625.58,-277.12 1633.37,-269.24 -268.04,1609.01 -275.82,1601.13 "/>
    <polygon id="76" class="fil49" points="1630.77,-271.87 1638.55,-263.99 -262.85,1614.26 -270.64,1606.38 "/>
    <polygon id="77" class="fil50" points="1635.96,-266.62 1643.74,-258.74 -257.66,1619.51 -265.45,1611.63 "/>
    <polygon id="78" class="fil51" points="1641.15,-261.37 1648.93,-253.49 -252.47,1624.76 -260.26,1616.88 "/>
    <polygon id="79" class="fil52" points="1646.34,-256.11 1654.12,-248.23 -247.29,1630.02 -255.07,1622.14 "/>
    <polygon id="80" class="fil53" points="1651.53,-250.86 1659.31,-242.98 -242.1,1635.27 -249.88,1627.39 "/>
    <polygon id="81" class="fil54" points="1656.72,-245.61 1664.5,-237.73 -236.91,1640.52 -244.69,1632.64 "/>
    <polygon id="82" class="fil55" points="1661.9,-240.35 1669.69,-232.47 -231.72,1645.78 -239.5,1637.9 "/>
    <polygon id="83" class="fil56" points="1667.09,-235.1 1674.88,-227.22 -226.53,1651.03 -234.31,1643.15 "/>
    <polygon id="84" class="fil57" points="1672.28,-229.85 1680.07,-221.97 -221.34,1656.28 -229.12,1648.4 "/>
    <polygon id="85" class="fil58" points="1677.47,-224.6 1685.25,-216.72 -216.15,1661.53 -223.94,1653.66 "/>
    <polygon id="86" class="fil59" points="1682.66,-219.34 1690.44,-211.46 -210.96,1666.79 -218.75,1658.91 "/>
    <polygon id="87" class="fil60" points="1687.85,-214.09 1695.63,-206.21 -205.77,1672.04 -213.56,1664.16 "/>
    <polygon id="88" class="fil61" points="1693.04,-208.84 1700.82,-200.96 -200.59,1677.29 -208.37,1669.41 "/>
    <polygon id="89" class="fil62" points="1698.23,-203.58 1706.01,-195.7 -195.4,1682.55 -203.18,1674.67 "/>
    <polygon id="90" class="fil63" points="1703.42,-198.33 1711.2,-190.45 -190.21,1687.8 -197.99,1679.92 "/>
    <polygon id="91" class="fil64" points="1708.6,-193.08 1716.39,-185.2 -185.02,1693.05 -192.8,1685.17 "/>
    <polygon id="92" class="fil65" points="1713.79,-187.82 1721.58,-179.95 -179.83,1698.3 -187.61,1690.43 "/>
    <polygon id="93" class="fil66" points="1718.98,-182.57 1726.77,-174.69 -174.64,1703.56 -182.42,1695.68 "/>
    <polygon id="94" class="fil67" points="1724.17,-177.32 1731.95,-169.44 -169.45,1708.81 -177.24,1700.93 "/>
    <polygon id="95" class="fil68" points="1729.36,-172.07 1737.14,-164.19 -164.26,1714.06 -172.05,1706.18 "/>
    <polygon id="96" class="fil69" points="1734.55,-166.81 1742.33,-158.93 -159.07,1719.32 -166.86,1711.44 "/>
    <polygon id="97" class="fil70" points="1739.74,-161.56 1747.52,-153.68 -153.89,1724.57 -161.67,1716.69 "/>
    <polygon id="98" class="fil71" points="1744.93,-156.31 1752.71,-148.43 -148.7,1729.82 -156.48,1721.94 "/>
    <polygon id="99" class="fil72" points="1750.12,-151.05 1757.9,-143.18 -143.51,1735.07 -151.29,1727.2 "/>
    <polygon id="100" class="fil73" points="1755.3,-145.8 1763.09,-137.92 -138.32,1740.33 -146.1,1732.45 "/>
    <polygon id="101" class="fil74" points="1760.49,-140.55 1768.28,-132.67 -133.13,1745.58 -140.91,1737.7 "/>
    <polygon id="102" class="fil75" points="1765.68,-135.3 1773.47,-127.42 -127.94,1750.83 -135.72,1742.95 "/>
    <polygon id="103" class="fil76" points="1770.87,-130.04 1778.65,-122.16 -122.75,1756.09 -130.54,1748.21 "/>
    <polygon id="104" class="fil77" points="1776.06,-124.79 1783.84,-116.91 -117.56,1761.34 -125.35,1753.46 "/>
    <polygon id="105" class="fil78" points="1781.25,-119.54 1789.03,-111.66 -112.37,1766.59 -120.16,1758.71 "/>
    <polygon id="106" class="fil79" points="1786.44,-114.28 1794.22,-106.41 -107.19,1771.84 -114.97,1763.97 "/>
    <polygon id="107" class="fil80" points="1791.63,-109.03 1799.41,-101.15 -102,1777.1 -109.78,1769.22 "/>
    <polygon id="108" class="fil81" points="1796.82,-103.78 1804.6,-95.9 -96.81,1782.35 -104.59,1774.47 "/>
    <polygon id="109" class="fil82" points="1802.01,-98.53 1809.79,-90.65 -91.62,1787.6 -99.4,1779.72 "/>
    <polygon id="110" class="fil83" points="1807.19,-93.27 1814.98,-85.39 -86.43,1792.86 -94.21,1784.98 "/>
    <polygon id="111" class="fil84" points="1812.38,-88.02 1820.17,-80.14 -81.24,1798.11 -89.02,1790.23 "/>
    <polygon id="112" class="fil85" points="1817.57,-82.77 1825.36,-74.89 -76.05,1803.36 -83.84,1795.48 "/>
    <polygon id="113" class="fil86" points="1822.76,-77.51 1830.54,-69.63 -70.86,1808.62 -78.65,1800.74 "/>
    <polygon id="114" class="fil87" points="1827.95,-72.26 1835.73,-64.38 -65.67,1813.87 -73.46,1805.99 "/>
    <polygon id="115" class="fil88" points="1833.14,-67.01 1840.92,-59.13 -60.48,1819.12 -68.27,1811.24 "/>
    <polygon id="116" class="fil89" points="1838.33,-61.76 1846.11,-53.88 -55.3,1824.37 -63.08,1816.49 "/>
    <polygon id="117" class="fil90" points="1843.52,-56.5 1851.3,-48.62 -50.11,1829.63 -57.89,1821.75 "/>
    <polygon id="118" class="fil91" points="1848.71,-51.25 1856.49,-43.37 -44.92,1834.88 -52.7,1827 "/>
    <polygon id="119" class="fil92" points="1853.89,-46 1861.68,-38.12 -39.73,1840.13 -47.51,1832.25 "/>
    <polygon id="120" class="fil93" points="1859.08,-40.74 1866.87,-32.86 -34.54,1845.39 -42.32,1837.51 "/>
    <polygon id="121" class="fil94" points="1864.27,-35.49 1872.06,-27.61 -29.35,1850.64 -37.13,1842.76 "/>
    <polygon id="122" class="fil95" points="1869.46,-30.24 1877.24,-22.36 -24.16,1855.89 -31.95,1848.01 "/>
    <polygon id="123" class="fil96" points="1874.65,-24.99 1882.43,-17.11 -18.97,1861.14 -26.76,1853.26 "/>
    <polygon id="124" class="fil97" points="1879.84,-19.73 1887.62,-11.85 -13.78,1866.4 -21.57,1858.52 "/>
    <polygon id="125" class="fil98" points="1885.03,-14.48 1892.81,-6.6 -8.6,1871.65 -16.38,1863.77 "/>
    <polygon id="126" class="fil99" points="1890.22,-9.23 1898,-1.35 -3.41,1876.9 -11.19,1869.02 "/>
    <polygon id="127" class="fil100" points="1895.41,-3.97 1903.19,3.91 1.78,1882.16 -6,1874.28 "/>
    <polygon id="128" class="fil101" points="1900.59,1.28 1908.38,9.16 6.97,1887.41 -0.81,1879.53 "/>
    <polygon id="129" class="fil102" points="1905.78,6.53 1913.57,14.41 12.16,1892.66 4.38,1884.78 "/>
    <polygon id="130" class="fil103" points="1910.97,11.78 1918.76,19.66 17.35,1897.91 9.57,1890.03 "/>
    <polygon id="131" class="fil104" points="1916.16,17.04 1923.94,24.92 22.54,1903.17 14.75,1895.29 "/>
    <polygon id="132" class="fil105" points="1921.35,22.29 1929.13,30.17 27.73,1908.42 19.94,1900.54 "/>
    <polygon id="133" class="fil106" points="1926.54,27.54 1934.32,35.42 32.92,1913.67 25.13,1905.79 "/>
    <polygon id="134" class="fil107" points="1931.73,32.8 1939.51,40.68 38.1,1918.93 30.32,1911.05 "/>
    <polygon id="135" class="fil108" points="1936.92,38.05 1944.7,45.93 43.29,1924.18 35.51,1916.3 "/>
    <polygon id="136" class="fil109" points="1942.11,43.3 1949.89,51.18 48.48,1929.43 40.7,1921.55 "/>
    <polygon id="137" class="fil110" points="1947.29,48.55 1955.08,56.43 53.67,1934.68 45.89,1926.8 "/>
    <polygon id="138" class="fil111" points="1952.48,53.81 1960.27,61.69 58.86,1939.94 51.08,1932.06 "/>
    <polygon id="139" class="fil112" points="1957.67,59.06 1965.46,66.94 64.05,1945.19 56.27,1937.31 "/>
    <polygon id="140" class="fil113" points="1962.86,64.31 1970.64,72.19 69.24,1950.44 61.45,1942.56 "/>
    <polygon id="141" class="fil114" points="1968.05,69.57 1975.83,77.45 74.43,1955.7 66.64,1947.82 "/>
    <polygon id="142" class="fil115" points="1973.24,74.82 1981.02,82.7 79.62,1960.95 71.83,1953.07 "/>
    <polygon id="143" class="fil116" points="1978.43,80.07 1986.21,87.95 84.8,1966.2 77.02,1958.32 "/>
    <polygon id="144" class="fil117" points="1983.62,85.33 1991.4,93.2 89.99,1971.45 82.21,1963.58 "/>
    <polygon id="145" class="fil118" points="1988.81,90.58 1996.59,98.46 95.18,1976.71 87.4,1968.83 "/>
    <polygon id="146" class="fil119" points="1993.99,95.83 2001.78,103.71 100.37,1981.96 92.59,1974.08 "/>
    <polygon id="147" class="fil120" points="1999.18,101.08 2006.97,108.96 105.56,1987.21 97.78,1979.33 "/>
    <polygon id="148" class="fil121" points="2004.37,106.34 2012.16,114.22 110.75,1992.47 102.97,1984.59 "/>
    <polygon id="149" class="fil122" points="2009.56,111.59 2017.34,119.47 115.94,1997.72 108.15,1989.84 "/>
    <polygon id="150" class="fil123" points="2014.75,116.84 2022.53,124.72 121.13,2002.97 113.34,1995.09 "/>
    <polygon id="151" class="fil124" points="2019.94,122.1 2027.72,129.97 126.32,2008.22 118.53,2000.35 "/>
    <polygon id="152" class="fil125" points="2025.13,127.35 2032.91,135.23 131.5,2013.48 123.72,2005.6 "/>
    <polygon id="153" class="fil126" points="2030.32,132.6 2038.1,140.48 136.69,2018.73 128.91,2010.85 "/>
    <polygon id="154" class="fil127" points="2035.51,137.85 2043.29,145.73 141.88,2023.98 134.1,2016.1 "/>
    <polygon id="155" class="fil128" points="2040.69,143.11 2048.48,150.99 147.07,2029.24 139.29,2021.36 "/>
    <polygon id="156" class="fil129" points="2045.88,148.36 2053.67,156.24 152.26,2034.49 144.48,2026.61 "/>
    <polygon id="157" class="fil130" points="2051.07,153.61 2058.86,161.49 157.45,2039.74 149.67,2031.86 "/>
    <polygon id="158" class="fil131" points="2056.26,158.87 2064.05,166.74 162.64,2044.99 154.85,2037.12 "/>
    <polygon id="159" class="fil132" points="2061.45,164.12 2069.23,172 167.83,2050.25 160.04,2042.37 "/>
    <polygon id="160" class="fil133" points="2066.64,169.37 2074.42,177.25 173.02,2055.5 165.23,2047.62 "/>
    <polygon id="161" class="fil134" points="2071.83,174.62 2079.61,182.5 178.21,2060.75 170.42,2052.87 "/>
    <polygon id="162" class="fil135" points="2077.02,179.88 2084.8,187.76 183.39,2066.01 175.61,2058.13 "/>
    <polygon id="163" class="fil136" points="2082.21,185.13 2089.99,193.01 188.58,2071.26 180.8,2063.38 "/>
    <polygon id="164" class="fil137" points="2087.4,190.38 2095.18,198.26 193.77,2076.51 185.99,2068.63 "/>
    <polygon id="165" class="fil138" points="2092.58,195.64 2100.37,203.51 198.96,2081.77 191.18,2073.89 "/>
    <polygon id="166" class="fil139" points="2097.77,200.89 2105.56,208.77 204.15,2087.02 196.37,2079.14 "/>
    <polygon id="167" class="fil140" points="2102.96,206.14 2110.75,214.02 209.34,2092.27 201.56,2084.39 "/>
    <polygon id="168" class="fil141" points="2108.15,211.39 2115.93,219.27 214.53,2097.52 206.74,2089.64 "/>
    <polygon id="169" class="fil142" points="2113.34,216.65 2121.12,224.53 219.72,2102.78 211.93,2094.9 "/>
    <polygon id="170" class="fil143" points="2118.53,221.9 2126.31,229.78 224.91,2108.03 217.12,2100.15 "/>
    <polygon id="171" class="fil144" points="2123.72,227.15 2131.5,235.03 230.09,2113.28 222.31,2105.4 "/>
    <polygon id="172" class="fil145" points="2128.91,232.41 2136.69,240.29 235.28,2118.54 227.5,2110.66 "/>
    <polygon id="173" class="fil146" points="2134.1,237.66 2141.88,245.54 240.47,2123.79 232.69,2115.91 "/>
    <polygon id="174" class="fil147" points="2139.28,242.91 2147.07,250.79 245.66,2129.04 237.88,2121.16 "/>
    <polygon id="175" class="fil148" points="2144.47,248.16 2152.26,256.04 250.85,2134.29 243.07,2126.41 "/>
    <polygon id="176" class="fil149" points="2149.66,253.42 2157.45,261.3 256.04,2139.55 248.26,2131.67 "/>
    <polygon id="177" class="fil150" points="2154.85,258.67 2162.63,266.55 261.23,2144.8 253.44,2136.92 "/>
    <polygon id="178" class="fil151" points="2160.04,263.92 2167.82,271.8 266.42,2150.05 258.63,2142.17 "/>
    <polygon id="179" class="fil152" points="2165.23,269.18 2173.01,277.06 271.61,2155.31 263.82,2147.43 "/>
    <polygon id="180" class="fil153" points="2170.42,274.43 2178.2,282.31 276.79,2160.56 269.01,2152.68 "/>
    <polygon id="181" class="fil154" points="2175.61,279.68 2183.39,287.56 281.98,2165.81 274.2,2157.93 "/>
    <polygon id="182" class="fil155" points="2180.8,284.93 2188.58,292.81 287.17,2171.06 279.39,2163.18 "/>
    <polygon id="183" class="fil156" points="2185.98,290.19 2193.77,298.07 292.36,2176.32 284.58,2168.44 "/>
    <polygon id="184" class="fil157" points="2191.17,295.44 2198.96,303.32 297.55,2181.57 289.77,2173.69 "/>
    <polygon id="185" class="fil158" points="2196.36,300.69 2204.15,308.57 302.74,2186.82 294.96,2178.94 "/>
    <polygon id="186" class="fil159" points="2201.55,305.95 2209.33,313.83 307.93,2192.08 300.14,2184.2 "/>
    <polygon id="187" class="fil160" points="2206.74,311.2 2214.52,319.08 313.12,2197.33 305.33,2189.45 "/>
    <polygon id="188" class="fil161" points="2211.93,316.45 2219.71,324.33 318.31,2202.58 310.52,2194.7 "/>
    <polygon id="189" class="fil162" points="2217.12,321.7 2224.9,329.58 323.49,2207.83 315.71,2199.95 "/>
    <polygon id="190" class="fil163" points="2222.31,326.96 2230.09,334.84 328.68,2213.09 320.9,2205.21 "/>
    <polygon id="191" class="fil164" points="2227.5,332.21 2235.28,340.09 333.87,2218.34 326.09,2210.46 "/>
    <polygon id="192" class="fil165" points="2232.68,337.46 2240.47,345.34 339.06,2223.59 331.28,2215.71 "/>
    <polygon id="193" class="fil166" points="2237.87,342.72 2245.66,350.6 344.25,2228.85 336.47,2220.97 "/>
    <polygon id="194" class="fil167" points="2243.06,347.97 2250.85,355.85 349.44,2234.1 341.66,2226.22 "/>
    <polygon id="195" class="fil168" points="2248.25,353.22 2256.03,361.1 354.63,2239.35 346.84,2231.47 "/>
    <polygon id="196" class="fil169" points="2253.44,358.47 2261.22,366.35 359.82,2244.6 352.03,2236.73 "/>
    <polygon id="197" class="fil170" points="2258.63,363.73 2266.41,371.61 365.01,2249.86 357.22,2241.98 "/>
    <polygon id="198" class="fil171" points="2263.82,368.98 2271.6,376.86 370.19,2255.11 362.41,2247.23 "/>
    <polygon id="199" class="fil172" points="2269.01,374.23 2276.79,382.11 375.38,2260.36 367.6,2252.48 "/>
    <polygon id="200" class="fil173" points="2274.2,379.49 2281.98,387.37 380.57,2265.62 372.79,2257.74 "/>
    <polygon id="201" class="fil174" points="2279.38,384.74 2287.17,392.62 385.76,2270.87 377.98,2262.99 "/>
    <polygon id="202" class="fil175" points="2284.57,389.99 2292.36,397.87 390.95,2276.12 383.17,2268.24 "/>
    <polygon id="203" class="fil175" points="2289.76,395.25 2297.55,403.12 396.14,2281.37 388.36,2273.5 "/>
    <polygon id="204" class="fil176" points="2294.95,400.5 2302.73,408.38 401.33,2286.63 393.54,2278.75 "/>
    <polygon id="205" class="fil177" points="2300.14,405.75 2307.92,413.63 406.52,2291.88 398.73,2284 "/>
    <polygon id="206" class="fil178" points="2305.33,411 2313.11,418.88 411.71,2297.13 403.92,2289.25 "/>
    <polygon id="207" class="fil179" points="2310.52,416.26 2318.3,424.14 416.89,2302.39 409.11,2294.51 "/>
    <polygon id="208" class="fil180" points="2315.71,421.51 2323.49,429.39 422.08,2307.64 414.3,2299.76 "/>
    <polygon id="209" class="fil181" points="2320.9,426.76 2328.68,434.64 427.27,2312.89 419.49,2305.01 "/>
    <polygon id="210" class="fil181" points="2326.09,432.02 2333.87,439.89 432.46,2318.14 424.68,2310.27 "/>
    <polygon id="211" class="fil182" points="2331.27,437.27 2339.06,445.15 437.65,2323.4 429.87,2315.52 "/>
    <polygon id="212" class="fil183" points="2336.46,442.52 2344.25,450.4 442.84,2328.65 435.06,2320.77 "/>
    <polygon id="213" class="fil184" points="2341.65,447.77 2349.44,455.65 448.03,2333.9 440.24,2326.02 "/>
    <polygon id="214" class="fil185" points="2346.84,453.03 2354.62,460.91 453.22,2339.16 445.43,2331.28 "/>
    <polygon id="215" class="fil185" points="2352.03,458.28 2359.81,466.16 458.41,2344.41 450.62,2336.53 "/>
    <polygon id="216" class="fil186" points="2357.22,463.53 2365,471.41 463.59,2349.66 455.81,2341.78 "/>
    <polygon id="217" class="fil187" points="2362.41,468.79 2370.19,476.66 468.78,2354.92 461,2347.04 "/>
    <polygon id="218" class="fil187" points="2367.6,474.04 2375.38,481.92 473.97,2360.17 466.19,2352.29 "/>
    <polygon id="219" class="fil188" points="2372.79,479.29 2380.57,487.17 479.16,2365.42 471.38,2357.54 "/>
    <polygon id="220" class="fil189" points="2377.97,484.54 2385.76,492.42 484.35,2370.67 476.57,2362.79 "/>
    <polygon id="221" class="fil189" points="2383.16,489.8 2390.95,497.68 489.54,2375.93 481.76,2368.05 "/>
    <polygon id="222" class="fil190" points="2388.35,495.05 2396.14,502.93 494.73,2381.18 486.95,2373.3 "/>
    <polygon id="223" class="fil191" points="2393.54,500.3 2401.32,508.18 499.92,2386.43 492.13,2378.55 "/>
    <polygon id="224" class="fil191" points="2398.73,505.56 2406.51,513.43 505.11,2391.69 497.32,2383.81 "/>
    <polygon id="225" class="fil192" points="2403.92,510.81 2411.7,518.69 510.3,2396.94 502.51,2389.06 "/>
    <polygon id="226" class="fil193" points="2409.11,516.06 2416.89,523.94 515.48,2402.19 507.7,2394.31 "/>
    <polygon id="227" class="fil193" points="2414.3,521.31 2422.08,529.19 520.67,2407.44 512.89,2399.56 "/>
    <polygon id="228" class="fil194" points="2419.49,526.57 2427.27,534.45 525.86,2412.7 518.08,2404.82 "/>
    <polygon id="229" class="fil194" points="2424.67,531.82 2432.46,539.7 531.05,2417.95 523.27,2410.07 "/>
    <polygon id="230" class="fil195" points="2429.86,537.07 2437.65,544.95 536.24,2423.2 528.46,2415.32 "/>
    <polygon id="231" class="fil195" points="2435.05,542.33 2442.84,550.21 541.43,2428.46 533.65,2420.58 "/>
    <polygon id="232" class="fil196" points="2440.24,547.58 2448.02,555.46 546.62,2433.71 538.83,2425.83 "/>
    <polygon id="233" class="fil196" points="2445.43,552.83 2453.21,560.71 551.81,2438.96 544.02,2431.08 "/>
    <polygon id="234" class="fil196" points="2450.62,558.08 2458.4,565.96 557,2444.21 549.21,2436.33 "/>
    <polygon id="235" class="fil197" points="2455.81,563.34 2463.59,571.22 562.18,2449.47 554.4,2441.59 "/>
    <polygon id="236" class="fil197" points="2461,568.59 2468.78,576.47 567.37,2454.72 559.59,2446.84 "/>
    <polygon id="237" class="fil198" points="2466.19,573.84 2473.97,581.72 572.56,2459.97 564.78,2452.09 "/>
    <polygon id="238" class="fil198" points="2471.37,579.1 2479.16,586.98 577.75,2465.23 569.97,2457.35 "/>
    <polygon id="239" class="fil198" points="2476.56,584.35 2484.35,592.23 582.94,2470.48 575.16,2462.6 "/>
    <polygon id="240" class="fil199" points="2481.75,589.6 2489.54,597.48 588.13,2475.73 580.35,2467.85 "/>
    <polygon id="241" class="fil199" points="2486.94,594.85 2494.72,602.73 593.32,2480.98 585.53,2473.1 "/>
    <polygon id="242" class="fil199" points="2492.13,600.11 2499.91,607.99 598.51,2486.24 590.72,2478.36 "/>
    <polygon id="243" class="fil199" points="2497.32,605.36 2505.1,613.24 603.7,2491.49 595.91,2483.61 "/>
    <polygon id="244" class="fil200" points="2502.51,610.61 2510.29,618.49 608.88,2496.74 601.1,2488.86 "/>
    <polygon id="245" class="fil200" points="2507.7,615.87 2515.48,623.75 614.07,2502 606.29,2494.12 "/>
    <polygon id="246" class="fil200" points="2512.89,621.12 2520.67,629 619.26,2507.25 611.48,2499.37 "/>
    <polygon id="247" class="fil200" points="2518.07,626.37 2525.86,634.25 624.45,2512.5 616.67,2504.62 "/>
    <polygon id="248" class="fil200" points="2523.26,631.62 2531.05,639.5 629.64,2517.75 621.86,2509.88 "/>
    <polygon id="249" class="fil201" points="2528.45,636.88 2536.24,644.76 634.83,2523.01 627.05,2515.13 "/>
    <polygon id="250" class="fil201" points="2533.64,642.13 2541.42,650.01 640.02,2528.26 632.23,2520.38 "/>
    <polygon id="251" class="fil201" points="2538.83,647.38 2546.61,655.26 645.21,2533.51 637.42,2525.63 "/>
    <polygon id="252" class="fil201" points="2544.02,652.64 2551.8,660.52 650.4,2538.77 642.61,2530.89 "/>
    <polygon id="253" class="fil201" points="2549.21,657.89 2556.99,665.77 655.58,2544.02 647.8,2536.14 "/>
    <polygon id="254" class="fil201" points="2554.4,663.14 2562.18,671.02 660.77,2549.27 652.99,2541.39 "/>
    <polygon id="255" class="fil201" points="2559.59,668.4 2671.94,782.13 770.53,2660.38 658.18,2546.65 "/>
   </g>
  </g>
 </g>
</svg>
